<svg width="37" height="36" viewBox="0 0 37 36" fill="none" xmlns="http://www.w3.org/2000/svg">
<g clip-path="url(#clip0)">
<path d="M18.5 6.27097C12.0324 6.27097 6.77096 11.5324 6.77096 18C6.77096 24.4672 12.0324 29.729 18.5 29.729C24.9672 29.729 30.229 24.4672 30.229 18C30.229 11.5324 24.9672 6.27097 18.5 6.27097ZM18.5 27.4065C13.3133 27.4065 9.09352 23.1867 9.09352 18C9.09352 12.8133 13.3133 8.59353 18.5 8.59353C23.6867 8.59353 27.9065 12.8133 27.9065 18C27.9065 23.1871 23.6867 27.4065 18.5 27.4065Z" fill="#1DA1F2"/>
<path d="M18.5 0C17.8586 0 17.3387 0.519891 17.3387 1.16128V12.6968C17.3387 13.3381 17.8586 13.858 18.5 13.858C19.1414 13.858 19.6613 13.3381 19.6613 12.6968V1.16128C19.6613 0.519891 19.1414 0 18.5 0Z" fill="#1DA1F2"/>
<path d="M18.5 22.142C17.8586 22.142 17.3387 22.6619 17.3387 23.3033V34.8387C17.3387 35.4801 17.8586 36 18.5 36C19.1414 36 19.6613 35.4801 19.6613 34.8387V23.3033C19.6613 22.6618 19.1414 22.142 18.5 22.142Z" fill="#1DA1F2"/>
<path d="M35.3387 16.8387H23.8033C23.1619 16.8387 22.642 17.3586 22.642 18C22.642 18.6414 23.1619 19.1613 23.8033 19.1613H35.3387C35.9801 19.1613 36.5 18.6414 36.5 18C36.5 17.3586 35.9801 16.8387 35.3387 16.8387Z" fill="#1DA1F2"/>
<path d="M13.1968 16.8387H1.66128C1.01989 16.8387 0.5 17.3586 0.5 18C0.5 18.6414 1.01989 19.1613 1.66128 19.1613H13.1968C13.8381 19.1613 14.358 18.6414 14.358 18C14.358 17.3586 13.8382 16.8387 13.1968 16.8387Z" fill="#1DA1F2"/>
</g>
<defs>
<clipPath id="clip0">
<rect width="36" height="36" fill="white" transform="translate(0.5)"/>
</clipPath>
</defs>
</svg>
