<svg width="13" height="14" viewBox="0 0 13 14" fill="none" xmlns="http://www.w3.org/2000/svg">
<path d="M12.6401 7.295C12.6462 6.86751 12.5335 6.44673 12.3145 6.0795C12.0956 5.71227 11.7791 5.41299 11.4001 5.215C11.4927 4.95843 11.54 4.68775 11.5401 4.415C11.5468 4.1195 11.4951 3.82561 11.3882 3.55008C11.2812 3.27455 11.1209 3.0228 10.9166 2.80921C10.7123 2.59562 10.468 2.42437 10.1975 2.30525C9.92697 2.18614 9.63564 2.1215 9.34014 2.11501C9.07676 2.11051 8.81508 2.15809 8.57014 2.25501C8.40019 1.86665 8.12022 1.53657 7.76479 1.30554C7.40936 1.07452 6.99404 0.952656 6.57014 0.955005C6.14706 0.956445 5.73338 1.07984 5.37865 1.31041C5.02393 1.54098 4.74321 1.86895 4.57014 2.25501C4.32519 2.15809 4.06353 2.11051 3.80015 2.11501C3.20423 2.13074 2.63865 2.38128 2.2266 2.81206C1.81454 3.24284 1.58939 3.81897 1.60015 4.415C1.60024 4.68775 1.6476 4.95843 1.74015 5.215C1.36269 5.41477 1.04739 5.71443 0.828711 6.08126C0.610027 6.44808 0.496362 6.86795 0.500143 7.295C0.495653 7.69719 0.596709 8.09354 0.793234 8.44448C0.989759 8.79541 1.27488 9.08867 1.62014 9.295C1.62014 9.395 1.62014 9.495 1.62014 9.595C1.60938 10.191 1.83455 10.7672 2.2466 11.198C2.65866 11.6287 3.22422 11.8793 3.82014 11.895C4.08313 11.895 4.34396 11.8475 4.59014 11.755C4.76569 12.1384 5.04728 12.4636 5.40166 12.6922C5.75605 12.9208 6.16844 13.0432 6.59014 13.045C7.01266 13.0469 7.42664 12.926 7.78171 12.697C8.13679 12.468 8.41764 12.1407 8.59014 11.755C8.83632 11.8475 9.09715 11.895 9.36014 11.895C9.65564 11.8885 9.94696 11.8239 10.2175 11.7047C10.488 11.5856 10.7323 11.4144 10.9367 11.2008C11.141 10.9872 11.3012 10.7355 11.4082 10.4599C11.5151 10.1844 11.5668 9.8905 11.5601 9.595C11.5601 9.495 11.5601 9.395 11.5601 9.295C11.898 9.08374 12.1751 8.78833 12.3645 8.43773C12.5538 8.08713 12.6488 7.69336 12.6401 7.295ZM8.83014 5.375L6.34014 9.11501C6.29929 9.17274 6.2454 9.22003 6.18285 9.25304C6.1203 9.28605 6.05085 9.30386 5.98014 9.30501C5.90859 9.29915 5.83973 9.27505 5.78014 9.235L5.71013 9.17501L4.32014 7.78501C4.23924 7.70412 4.19381 7.5944 4.19381 7.48C4.19381 7.3656 4.23924 7.2559 4.32014 7.17501C4.40103 7.09411 4.51075 7.04866 4.62514 7.04866C4.73954 7.04866 4.84925 7.09411 4.93014 7.17501L5.93014 8.17501L8.13015 4.875C8.16167 4.82773 8.20219 4.78713 8.2494 4.75551C8.29661 4.7239 8.34958 4.70188 8.40529 4.69074C8.46101 4.67959 8.51836 4.67954 8.5741 4.69057C8.62984 4.7016 8.68286 4.72349 8.73014 4.75501C8.77741 4.78653 8.81803 4.82705 8.84965 4.87426C8.88126 4.92146 8.90326 4.97444 8.9144 5.03015C8.92555 5.08587 8.92561 5.14322 8.91459 5.19896C8.90356 5.2547 8.88167 5.30772 8.85015 5.355L8.83014 5.375Z" fill="#1DA1F2"/>
</svg>
